<mxfile host="65bd71144e">
    <diagram id="rQNPWaONnHU8f27pILRu" name="Page-1">
        <mxGraphModel dx="15" dy="1171" grid="1" gridSize="10" guides="1" tooltips="1" connect="1" arrows="1" fold="1" page="1" pageScale="1" pageWidth="827" pageHeight="1169" math="0" shadow="0">
            <root>
                <mxCell id="0"/>
                <mxCell id="1" parent="0"/>
                <mxCell id="2" value="v" style="group" vertex="1" connectable="0" parent="1">
                    <mxGeometry x="1720" y="60" width="420" height="938" as="geometry"/>
                </mxCell>
                <mxCell id="3" value="" style="strokeWidth=1;shadow=0;dashed=0;align=center;html=1;shape=mxgraph.mockup.containers.browserWindow;rSize=0;strokeColor=#666666;mainText=,;recursiveResize=0;rounded=0;labelBackgroundColor=none;fontFamily=Verdana;fontSize=12;container=0;" vertex="1" parent="2">
                    <mxGeometry y="38" width="420" height="900" as="geometry"/>
                </mxCell>
                <mxCell id="4" value="welcome" style="strokeWidth=1;shadow=0;dashed=0;align=center;html=1;shape=mxgraph.mockup.containers.anchor;fontSize=25;fontColor=#666666;align=left;" vertex="1" parent="2">
                    <mxGeometry width="110" height="26" as="geometry"/>
                </mxCell>
                <mxCell id="5" value="Welcome &amp;lt;name&amp;gt;!&lt;br&gt;&lt;br&gt;Do you think you're an expert?&amp;nbsp; Test your knowledge by answering &amp;lt;number&amp;gt; questions on &amp;lt;categories&amp;gt;.&amp;nbsp;" style="rounded=1;whiteSpace=wrap;html=1;fontSize=24;" vertex="1" parent="2">
                    <mxGeometry x="20" y="230" width="380" height="220" as="geometry"/>
                </mxCell>
                <mxCell id="6" value="Go!" style="rounded=1;whiteSpace=wrap;html=1;fontSize=24;" vertex="1" parent="2">
                    <mxGeometry x="130" y="480" width="160" height="40" as="geometry"/>
                </mxCell>
                <mxCell id="7" value="App Name" style="rounded=0;whiteSpace=wrap;html=1;fontSize=24;" vertex="1" parent="2">
                    <mxGeometry y="150" width="420" height="50" as="geometry"/>
                </mxCell>
                <mxCell id="8" value="&lt;div&gt;&lt;/div&gt;&lt;span style=&quot;font-size: 30px&quot;&gt;&lt;ul&gt;&lt;li&gt;&lt;span&gt;The user's name is retrieved from LocalStorage and inserted into the welcome message.&amp;nbsp;&lt;/span&gt;&lt;/li&gt;&lt;/ul&gt;&lt;ul&gt;&lt;li&gt;The user clicks the button to start the game sequence.&amp;nbsp;&lt;/li&gt;&lt;/ul&gt;&lt;/span&gt;" style="text;html=1;strokeColor=none;fillColor=default;align=left;verticalAlign=top;whiteSpace=wrap;rounded=0;gradientColor=none;horizontal=1;spacingTop=0;spacingLeft=16;spacingRight=16;" vertex="1" parent="1">
                    <mxGeometry x="2200" y="94" width="1420" height="870" as="geometry"/>
                </mxCell>
            </root>
        </mxGraphModel>
    </diagram>
</mxfile>